Marlette-Block-Master-Mar-13.ufo
<glyph name="percent" format="2">
  <advance width="792"/>
  <unicode hex="0025"/>
  <guideline x="743" y="318" angle="90" identifier="A0GdjnUGg8"/>
  <outline>
    <contour>
      <point x="386" y="564" type="curve"/>
      <point x="386" y="566" type="line"/>
      <point x="386" y="672"/>
      <point x="353" y="761"/>
      <point x="194" y="761" type="curve"/>
      <point x="31" y="761"/>
      <point x="0" y="671"/>
      <point x="0" y="565" type="curve"/>
      <point x="0" y="460"/>
      <point x="31" y="372"/>
      <point x="192" y="371" type="curve"/>
      <point x="196" y="371" type="line"/>
      <point x="353" y="371"/>
      <point x="386" y="459"/>
    </contour>
    <contour>
      <point x="248" y="565" type="curve"/>
      <point x="248" y="538"/>
      <point x="240" y="511"/>
      <point x="194" y="511" type="curve"/>
      <point x="146" y="511"/>
      <point x="138" y="538"/>
      <point x="138" y="565" type="curve"/>
      <point x="138" y="594"/>
      <point x="146" y="621"/>
      <point x="194" y="621" type="curve"/>
      <point x="240" y="621"/>
      <point x="248" y="594"/>
    </contour>
    <contour>
      <point x="722" y="664" type="curve"/>
      <point x="722" y="691" type="line"/>
      <point x="665" y="691"/>
      <point x="597" y="609"/>
      <point x="548" y="559" type="curve" smooth="yes"/>
      <point x="482" y="493"/>
      <point x="409" y="420"/>
      <point x="347" y="358" type="curve" smooth="yes"/>
      <point x="241" y="252"/>
      <point x="188" y="210"/>
      <point x="50" y="74" type="curve"/>
      <point x="75" y="49" type="line"/>
      <point x="211" y="187"/>
      <point x="259" y="235"/>
      <point x="365" y="341" type="curve"/>
      <point x="432" y="408"/>
      <point x="512" y="488"/>
      <point x="582" y="558" type="curve" smooth="yes"/>
      <point x="626" y="601"/>
      <point x="664" y="664"/>
    </contour>
    <contour>
      <point x="358" y="612" type="line"/>
      <point x="390" y="635" type="line"/>
      <point x="396" y="630"/>
      <point x="441" y="589"/>
      <point x="496" y="589" type="curve" smooth="yes"/>
      <point x="581" y="589"/>
      <point x="632" y="702"/>
      <point x="702" y="703" type="curve"/>
      <point x="702" y="687" type="line"/>
      <point x="722" y="664" type="line"/>
      <point x="722" y="728" type="line"/>
      <point x="621" y="728"/>
      <point x="571" y="614"/>
      <point x="496" y="614" type="curve" smooth="yes"/>
      <point x="435" y="614"/>
      <point x="374" y="674"/>
      <point x="341" y="713" type="curve"/>
    </contour>
    <contour>
      <point x="752" y="173" type="curve"/>
      <point x="752" y="175" type="line"/>
      <point x="752" y="281"/>
      <point x="719" y="370"/>
      <point x="560" y="370" type="curve"/>
      <point x="397" y="370"/>
      <point x="366" y="280"/>
      <point x="366" y="174" type="curve"/>
      <point x="366" y="69"/>
      <point x="397" y="-19"/>
      <point x="558" y="-20" type="curve"/>
      <point x="562" y="-20" type="line"/>
      <point x="719" y="-20"/>
      <point x="752" y="68"/>
    </contour>
    <contour>
      <point x="614" y="174" type="curve"/>
      <point x="614" y="147"/>
      <point x="606" y="120"/>
      <point x="560" y="120" type="curve"/>
      <point x="512" y="120"/>
      <point x="504" y="147"/>
      <point x="504" y="174" type="curve"/>
      <point x="504" y="203"/>
      <point x="512" y="230"/>
      <point x="560" y="230" type="curve"/>
      <point x="606" y="230"/>
      <point x="614" y="203"/>
    </contour>
  </outline>
</glyph>
<glyph name="parenleft" format="2">
  <advance width="220"/>
  <unicode hex="0028"/>
  <outline>
    <contour>
      <point x="21" y="304" type="curve"/>
      <point x="21" y="433" type="line"/>
      <point x="23" y="686"/>
      <point x="89" y="767"/>
      <point x="180" y="765" type="curve"/>
      <point x="180" y="794" type="line"/>
      <point x="44" y="794"/>
      <point x="0" y="698"/>
      <point x="0" y="433" type="curve"/>
      <point x="0" y="304" type="line"/>
      <point x="0" y="39"/>
      <point x="44" y="-57"/>
      <point x="180" y="-57" type="curve"/>
      <point x="180" y="-28" type="line"/>
      <point x="89" y="-30"/>
      <point x="23" y="51"/>
    </contour>
  </outline>
</glyph>
<glyph name="comma" format="2">
  <advance width="341"/>
  <unicode hex="002C"/>
  <outline>
    <contour>
      <point x="301" y="140" type="curve"/>
      <point x="301" y="223"/>
      <point x="277" y="293"/>
      <point x="151" y="293" type="curve"/>
      <point x="24" y="293"/>
      <point x="0" y="223"/>
      <point x="0" y="140" type="curve"/>
      <point x="0" y="58"/>
      <point x="24" y="-12"/>
      <point x="151" y="-12" type="curve"/>
      <point x="183" y="-12"/>
      <point x="209" y="-5"/>
      <point x="217" y="8" type="curve"/>
      <point x="229" y="8" type="line"/>
      <point x="229" y="-27"/>
      <point x="158" y="-80"/>
      <point x="82" y="-80" type="curve"/>
      <point x="82" y="-109" type="line"/>
      <point x="213" y="-109"/>
      <point x="301" y="37"/>
    </contour>
  </outline>
</glyph>
<glyph name="hyphen" format="2">
  <advance width="452"/>
  <unicode hex="002D"/>
  <outline>
    <contour>
      <point x="412" y="367" type="curve"/>
      <point x="412" y="399" type="line"/>
      <point x="359" y="397"/>
      <point x="265" y="397"/>
      <point x="193" y="397" type="curve" smooth="yes"/>
      <point x="123" y="397"/>
      <point x="91" y="397"/>
      <point x="0" y="399" type="curve"/>
      <point x="0" y="367" type="line"/>
      <point x="91" y="369"/>
      <point x="123" y="369"/>
      <point x="193" y="369" type="curve" smooth="yes"/>
      <point x="265" y="369"/>
      <point x="359" y="369"/>
    </contour>
  </outline>
</glyph>
<glyph name="period" format="2">
  <advance width="341"/>
  <unicode hex="002E"/>
  <guideline x="250.0" y="0" angle="90.0" identifier="SAbZvVTYYW"/>
  <outline>
    <contour>
      <point x="301" y="140" type="curve"/>
      <point x="301" y="223"/>
      <point x="277" y="293"/>
      <point x="151" y="293" type="curve"/>
      <point x="24" y="293"/>
      <point x="0" y="223"/>
      <point x="0" y="140" type="curve"/>
      <point x="0" y="58"/>
      <point x="24" y="-12"/>
      <point x="151" y="-12" type="curve"/>
      <point x="277" y="-12"/>
      <point x="301" y="58"/>
    </contour>
  </outline>
</glyph>
<glyph name="eight" format="2">
  <advance width="660"/>
  <unicode hex="0038"/>
  <outline>
    <contour>
      <point x="320" y="766" type="curve"/>
      <point x="160" y="766"/>
      <point x="35" y="734"/>
      <point x="35" y="580" type="curve" smooth="yes"/>
      <point x="35" y="436"/>
      <point x="234" y="429"/>
      <point x="234" y="429" type="curve"/>
      <point x="234" y="429"/>
      <point x="234" y="408"/>
      <point x="234" y="408" type="curve" smooth="yes"/>
      <point x="196" y="408"/>
      <point x="0" y="417"/>
      <point x="0" y="224" type="curve" smooth="yes"/>
      <point x="0" y="36"/>
      <point x="141" y="-10"/>
      <point x="320" y="-10" type="curve"/>
      <point x="499" y="-10"/>
      <point x="640" y="36"/>
      <point x="640" y="224" type="curve" smooth="yes"/>
      <point x="640" y="417"/>
      <point x="444" y="408"/>
      <point x="406" y="408" type="curve" smooth="yes"/>
      <point x="406" y="408"/>
      <point x="406" y="429"/>
      <point x="406" y="429" type="curve"/>
      <point x="406" y="429"/>
      <point x="605" y="436"/>
      <point x="605" y="580" type="curve" smooth="yes"/>
      <point x="605" y="734"/>
      <point x="480" y="766"/>
    </contour>
    <contour>
      <point x="317" y="243" type="curve" smooth="yes"/>
      <point x="237" y="243"/>
      <point x="171" y="251"/>
      <point x="171" y="311" type="curve" smooth="yes"/>
      <point x="171" y="360"/>
      <point x="237" y="379"/>
      <point x="317" y="379" type="curve"/>
      <point x="398" y="379"/>
      <point x="464" y="360"/>
      <point x="464" y="311" type="curve" smooth="yes"/>
      <point x="464" y="251"/>
      <point x="398" y="243"/>
    </contour>
    <contour>
      <point x="317" y="412" type="curve" smooth="yes"/>
      <point x="280" y="412"/>
      <point x="250" y="417"/>
      <point x="250" y="450" type="curve" smooth="yes"/>
      <point x="250" y="477"/>
      <point x="280" y="486"/>
      <point x="317" y="486" type="curve" smooth="yes"/>
      <point x="355" y="486"/>
      <point x="385" y="477"/>
      <point x="385" y="450" type="curve" smooth="yes"/>
      <point x="385" y="417"/>
      <point x="355" y="412"/>
    </contour>
  </outline>
</glyph>
<glyph name="semicolon" format="2">
  <advance width="341"/>
  <unicode hex="003B"/>
  <outline>
    <contour>
      <point x="301" y="134" type="curve"/>
      <point x="301" y="203"/>
      <point x="277" y="258"/>
      <point x="151" y="258" type="curve"/>
      <point x="24" y="258"/>
      <point x="0" y="198"/>
      <point x="0" y="128" type="curve"/>
      <point x="0" y="59"/>
      <point x="27" y="-12"/>
      <point x="151" y="-12" type="curve"/>
      <point x="183" y="-12"/>
      <point x="209" y="-5"/>
      <point x="217" y="8" type="curve"/>
      <point x="229" y="8" type="line"/>
      <point x="229" y="-27"/>
      <point x="158" y="-80"/>
      <point x="82" y="-80" type="curve"/>
      <point x="82" y="-109" type="line"/>
      <point x="213" y="-109"/>
      <point x="301" y="40"/>
    </contour>
    <component base="sym_condensed_dot" yOffset="295"/>
  </outline>
</glyph>
<glyph name="less" format="2">
  <advance width="437"/>
  <unicode hex="003C"/>
  <outline>
    <contour>
      <point x="385" y="223" type="curve"/>
      <point x="397" y="253" type="line"/>
      <point x="356" y="275"/>
      <point x="102" y="378"/>
      <point x="31" y="378" type="curve"/>
      <point x="31" y="388" type="line"/>
      <point x="102" y="388"/>
      <point x="356" y="491"/>
      <point x="397" y="513" type="curve"/>
      <point x="385" y="543" type="line"/>
      <point x="329" y="505"/>
      <point x="111" y="421"/>
      <point x="0" y="402" type="curve"/>
      <point x="0" y="364" type="line"/>
      <point x="111" y="345"/>
      <point x="329" y="261"/>
    </contour>
  </outline>
</glyph>
<glyph name="at" format="2">
  <advance width="870"/>
  <unicode hex="0040"/>
  <guideline x="419.3491834275265" y="588.260212350399" angle="0" identifier="qiJQ8Zr7SK"/>
  <guideline x="412" y="688" angle="90" identifier="1RH9ZH7p8E"/>
  <guideline x="472" y="60" angle="0" identifier="7mIG2UozsH"/>
  <outline>
    <contour>
      <point x="421" y="264" type="curve" smooth="yes"/>
      <point x="465" y="264"/>
      <point x="501" y="302"/>
      <point x="501" y="346" type="curve" smooth="yes"/>
      <point x="501" y="395"/>
      <point x="465" y="430"/>
      <point x="421" y="430" type="curve" smooth="yes"/>
      <point x="375" y="430"/>
      <point x="338" y="395"/>
      <point x="338" y="346" type="curve" smooth="yes"/>
      <point x="338" y="302"/>
      <point x="375" y="264"/>
    </contour>
    <contour>
      <point x="527" y="146" type="curve" smooth="yes"/>
      <point x="527" y="238"/>
      <point x="527" y="288"/>
      <point x="527" y="288" type="curve"/>
      <point x="512" y="288" type="line"/>
      <point x="507" y="146"/>
      <point x="417" y="61"/>
      <point x="318" y="61" type="curve" smooth="yes"/>
      <point x="197" y="61"/>
      <point x="140" y="203"/>
      <point x="140" y="360" type="curve" smooth="yes"/>
      <point x="140" y="518"/>
      <point x="192" y="632"/>
      <point x="318" y="632" type="curve" smooth="yes"/>
      <point x="489" y="632"/>
      <point x="512" y="406"/>
      <point x="512" y="406" type="curve"/>
      <point x="527" y="406" type="line"/>
      <point x="527" y="486"/>
      <point x="513" y="541"/>
      <point x="481" y="577" type="curve"/>
      <point x="481" y="616" type="line"/>
      <point x="699" y="616" type="line"/>
      <point x="699" y="616"/>
      <point x="699" y="263"/>
      <point x="699" y="197" type="curve" smooth="yes"/>
      <point x="699" y="170"/>
      <point x="710" y="154"/>
      <point x="732" y="154" type="curve" smooth="yes"/>
      <point x="765" y="154"/>
      <point x="819" y="216"/>
      <point x="819" y="348" type="curve" smooth="yes"/>
      <point x="819" y="505"/>
      <point x="786" y="742"/>
      <point x="418" y="742" type="curve" smooth="yes"/>
      <point x="137" y="742"/>
      <point x="31" y="593"/>
      <point x="31" y="348" type="curve" smooth="yes"/>
      <point x="31" y="97"/>
      <point x="156" y="-48"/>
      <point x="418" y="-48" type="curve" smooth="yes"/>
      <point x="565" y="-48"/>
      <point x="631" y="-10"/>
      <point x="664" y="19" type="curve"/>
      <point x="684" y="4" type="line"/>
      <point x="649" y="-27"/>
      <point x="578" y="-70"/>
      <point x="418" y="-70" type="curve" smooth="yes"/>
      <point x="177" y="-70"/>
      <point x="0" y="40"/>
      <point x="0" y="348" type="curve" smooth="yes"/>
      <point x="0" y="613"/>
      <point x="120" y="766"/>
      <point x="418" y="766" type="curve" smooth="yes"/>
      <point x="736" y="766"/>
      <point x="850" y="608"/>
      <point x="850" y="348" type="curve" smooth="yes"/>
      <point x="850" y="185"/>
      <point x="767" y="62"/>
      <point x="633" y="60" type="curve" smooth="yes"/>
      <point x="575" y="59"/>
      <point x="527" y="99"/>
    </contour>
  </outline>
</glyph>
<glyph name="C" format="2">
  <advance width="664"/>
  <unicode hex="0043"/>
  <outline>
    <contour>
      <point x="560" y="373" type="line"/>
      <point x="560" y="298"/>
      <point x="506" y="245"/>
      <point x="304" y="245" type="curve" smooth="yes"/>
      <point x="177" y="245"/>
      <point x="90" y="273"/>
      <point x="90" y="375" type="curve" smooth="yes"/>
      <point x="90" y="478"/>
      <point x="177" y="506"/>
      <point x="304" y="506" type="curve" smooth="yes"/>
      <point x="465" y="506"/>
      <point x="555" y="407"/>
      <point x="555" y="407" type="curve"/>
      <point x="622" y="407" type="line"/>
      <point x="622" y="750" type="line"/>
      <point x="580" y="758"/>
      <point x="520" y="774"/>
      <point x="441" y="736" type="curve"/>
      <point x="425" y="745"/>
      <point x="376" y="761"/>
      <point x="304" y="761" type="curve" smooth="yes"/>
      <point x="139" y="761"/>
      <point x="0" y="677"/>
      <point x="0" y="375" type="curve" smooth="yes"/>
      <point x="0" y="72"/>
      <point x="139" y="-10"/>
      <point x="304" y="-10" type="curve"/>
      <point x="557" y="-10"/>
      <point x="624" y="140"/>
      <point x="624" y="140" type="curve"/>
      <point x="624" y="373" type="line"/>
    </contour>
  </outline>
</glyph>
<glyph name="K" format="2">
  <advance width="701"/>
  <unicode hex="004B"/>
  <outline>
    <contour>
      <point x="0" y="-1" type="line"/>
      <point x="104" y="-1"/>
      <point x="255" y="40"/>
      <point x="255" y="335" type="curve" smooth="yes"/>
      <point x="255" y="750" type="line"/>
      <point x="35" y="750" type="line"/>
      <point x="2" y="502" type="line"/>
      <point x="65" y="502"/>
      <point x="162" y="486"/>
      <point x="162" y="388" type="curve" smooth="yes"/>
      <point x="162" y="361" type="line" smooth="yes"/>
      <point x="162" y="263"/>
      <point x="63" y="247"/>
      <point x="0" y="247" type="curve"/>
    </contour>
    <contour>
      <point x="308" y="0" type="line"/>
      <point x="661" y="0" type="line"/>
      <point x="661" y="248" type="line"/>
      <point x="621" y="248" type="line" smooth="yes"/>
      <point x="528" y="248"/>
      <point x="548" y="406"/>
      <point x="428" y="406" type="curve" smooth="yes"/>
      <point x="247" y="406" type="line"/>
      <point x="243" y="406" type="line"/>
      <point x="243" y="324" type="line"/>
      <point x="348" y="324" type="line" smooth="yes"/>
      <point x="377" y="324"/>
      <point x="384" y="301"/>
      <point x="384" y="287" type="curve"/>
      <point x="384" y="260"/>
      <point x="358" y="248"/>
      <point x="308" y="248" type="curve"/>
    </contour>
    <contour>
      <point x="374" y="750"/>
      <point x="368" y="656"/>
      <point x="368" y="406" type="curve"/>
      <point x="368" y="344" type="line"/>
      <point x="417" y="344" type="line"/>
      <point x="417" y="476"/>
      <point x="477" y="502"/>
      <point x="540" y="502" type="curve" smooth="yes"/>
      <point x="661" y="502" type="line"/>
      <point x="661" y="750" type="line"/>
    </contour>
  </outline>
</glyph>
<glyph name="L" format="2">
  <advance width="596"/>
  <unicode hex="004C"/>
  <outline>
    <contour>
      <point x="356" y="198"/>
      <point x="349" y="312"/>
      <point x="349" y="312" type="curve"/>
      <point x="556" y="312" type="line"/>
      <point x="556" y="36" type="line"/>
      <point x="513" y="6"/>
      <point x="451" y="-13"/>
      <point x="394" y="-13" type="curve"/>
      <point x="297" y="-13"/>
      <point x="268" y="45"/>
      <point x="222" y="45" type="curve"/>
      <point x="197" y="45"/>
      <point x="181" y="22"/>
      <point x="181" y="-1" type="curve"/>
      <point x="0" y="-1" type="line"/>
      <point x="0" y="248" type="line"/>
      <point x="58" y="254"/>
      <point x="105" y="270"/>
      <point x="105" y="352" type="curve" smooth="yes"/>
      <point x="105" y="502" type="line"/>
      <point x="17" y="502" type="line"/>
      <point x="51" y="750" type="line"/>
      <point x="320" y="750" type="line"/>
      <point x="320" y="502" type="line"/>
      <point x="257" y="502"/>
      <point x="198" y="486"/>
      <point x="198" y="388" type="curve" smooth="yes"/>
      <point x="198" y="335" type="line"/>
      <point x="198" y="335"/>
      <point x="194" y="198"/>
      <point x="282" y="198" type="curve"/>
    </contour>
  </outline>
</glyph>
<glyph name="O" format="2">
  <advance width="699"/>
  <unicode hex="004F"/>
  <outline>
    <contour>
      <point x="95" y="375" type="curve"/>
      <point x="95" y="478"/>
      <point x="178" y="506"/>
      <point x="277" y="506" type="curve"/>
      <point x="376" y="506"/>
      <point x="458" y="478"/>
      <point x="458" y="375" type="curve"/>
      <point x="458" y="272"/>
      <point x="376" y="244"/>
      <point x="277" y="244" type="curve"/>
      <point x="178" y="244"/>
      <point x="95" y="272"/>
    </contour>
    <contour>
      <point x="679" y="375" type="curve"/>
      <point x="679" y="677"/>
      <point x="524" y="761"/>
      <point x="340" y="761" type="curve"/>
      <point x="154" y="761"/>
      <point x="0" y="677"/>
      <point x="0" y="375" type="curve"/>
      <point x="0" y="73"/>
      <point x="154" y="-11"/>
      <point x="340" y="-11" type="curve"/>
      <point x="524" y="-11"/>
      <point x="679" y="73"/>
    </contour>
  </outline>
</glyph>
<glyph name="P" format="2">
  <advance width="654"/>
  <unicode hex="0050"/>
  <outline>
    <contour>
      <point x="2" y="502" type="line"/>
      <point x="139" y="502"/>
      <point x="371" y="502"/>
      <point x="416" y="502" type="curve" smooth="yes"/>
      <point x="491" y="502"/>
      <point x="490" y="406"/>
      <point x="417" y="406" type="curve" smooth="yes"/>
      <point x="373" y="406"/>
      <point x="262" y="406"/>
      <point x="243" y="406" type="curve"/>
      <point x="243" y="324" type="line"/>
      <point x="417" y="324" type="line"/>
      <point x="546" y="324"/>
      <point x="634" y="400"/>
      <point x="634" y="538" type="curve" smooth="yes"/>
      <point x="634" y="662"/>
      <point x="571" y="750"/>
      <point x="445" y="750" type="curve" smooth="yes"/>
      <point x="347" y="750"/>
      <point x="196" y="750"/>
      <point x="171" y="750" type="curve"/>
    </contour>
    <contour>
      <point x="0" y="-1" type="line"/>
      <point x="376" y="-1" type="line"/>
      <point x="376" y="247" type="line"/>
      <point x="318" y="247"/>
      <point x="263" y="261"/>
      <point x="255" y="340" type="curve"/>
      <point x="255" y="750" type="line"/>
      <point x="35" y="750" type="line"/>
      <point x="2" y="502" type="line"/>
      <point x="65" y="502"/>
      <point x="162" y="486"/>
      <point x="162" y="388" type="curve" smooth="yes"/>
      <point x="162" y="361" type="line" smooth="yes"/>
      <point x="162" y="263"/>
      <point x="63" y="247"/>
      <point x="0" y="247" type="curve"/>
    </contour>
  </outline>
</glyph>
<glyph name="i" format="2">
  <advance width="323"/>
  <unicode hex="0069"/>
  <guideline x="237.0824474657803" y="536.6798787394314" angle="90" identifier="QsctQpMRqc"/>
  <guideline x="-9" y="392" angle="0" identifier="7GTXQvvGzY"/>
  <outline>
    <contour>
      <point x="81" y="314" type="line"/>
      <point x="81" y="254"/>
      <point x="33" y="247"/>
      <point x="19" y="247" type="curve"/>
      <point x="19" y="-1" type="line"/>
      <point x="277" y="-1" type="line"/>
      <point x="277" y="247" type="line"/>
      <point x="260" y="247"/>
      <point x="221" y="250"/>
      <point x="221" y="314" type="curve"/>
      <point x="221" y="516" type="line"/>
      <point x="268" y="548"/>
      <point x="312" y="668"/>
      <point x="259" y="734" type="curve" smooth="yes"/>
      <point x="254" y="740"/>
      <point x="250" y="744"/>
      <point x="245" y="746" type="curve"/>
      <point x="224" y="762"/>
      <point x="191" y="771"/>
      <point x="139" y="771" type="curve"/>
      <point x="22" y="771"/>
      <point x="0" y="725"/>
      <point x="0" y="669" type="curve"/>
      <point x="0" y="615"/>
      <point x="22" y="567"/>
      <point x="139" y="567" type="curve"/>
      <point x="183" y="567"/>
      <point x="221" y="585"/>
      <point x="221" y="585" type="curve"/>
      <point x="221" y="562" type="line"/>
      <point x="221" y="562"/>
      <point x="198" y="539"/>
      <point x="131" y="539" type="curve"/>
      <point x="93" y="540"/>
      <point x="55" y="548"/>
      <point x="41" y="561" type="curve"/>
      <point x="19" y="561" type="line"/>
      <point x="19" y="392" type="line"/>
      <point x="33" y="392"/>
      <point x="81" y="386"/>
      <point x="81" y="326" type="curve"/>
    </contour>
  </outline>
</glyph>
<glyph name="j" format="2">
  <advance width="323"/>
  <unicode hex="006A"/>
  <guideline x="12.279715645290729" y="391.749761076813" angle="0" identifier="mQBY98QOdl"/>
  <outline>
    <contour>
      <point x="81" y="203" type="line" smooth="yes"/>
      <point x="81" y="143"/>
      <point x="33" y="136"/>
      <point x="19" y="136" type="curve"/>
      <point x="19" y="-112" type="line"/>
      <point x="48" y="-112" type="line" smooth="yes"/>
      <point x="150" y="-112"/>
      <point x="221" y="-41"/>
      <point x="221" y="61" type="curve" smooth="yes"/>
      <point x="221" y="516" type="line"/>
      <point x="268" y="548"/>
      <point x="312.5968352906081" y="668.4837482235788"/>
      <point x="259" y="734" type="curve" smooth="yes"/>
      <point x="254.054662145422" y="740.0451330427111"/>
      <point x="250" y="744"/>
      <point x="245" y="746" type="curve"/>
      <point x="224" y="762"/>
      <point x="191.0" y="771.0"/>
      <point x="139" y="771" type="curve" smooth="yes"/>
      <point x="22.0" y="771.0"/>
      <point x="1.0287033112837767e-14" y="725.0"/>
      <point x="0" y="669" type="curve" smooth="yes"/>
      <point x="-9.91963907309356e-15" y="615.0"/>
      <point x="22.0" y="567.0"/>
      <point x="139" y="567" type="curve" smooth="yes"/>
      <point x="165.0" y="567.0"/>
      <point x="198" y="574"/>
      <point x="221" y="585" type="curve"/>
      <point x="221" y="562" type="line"/>
      <point x="207" y="548"/>
      <point x="171.0" y="539.0"/>
      <point x="131" y="539" type="curve" smooth="yes"/>
      <point x="92.98684438250358" y="539.0"/>
      <point x="55" y="548"/>
      <point x="41" y="561" type="curve"/>
      <point x="19" y="561" type="line"/>
      <point x="19" y="392" type="line"/>
      <point x="33" y="392"/>
      <point x="81" y="385"/>
      <point x="81" y="325" type="curve" smooth="yes"/>
    </contour>
  </outline>
</glyph>
<glyph name="q" format="2">
  <advance width="703"/>
  <unicode hex="0071"/>
  <outline>
    <contour>
      <point x="663" y="-106" type="line"/>
      <point x="663" y="142" type="line"/>
      <point x="649" y="142"/>
      <point x="601" y="147"/>
      <point x="601" y="211" type="curve" smooth="yes"/>
      <point x="601" y="645" type="line"/>
      <point x="483" y="645" type="line"/>
      <point x="483" y="630"/>
      <point x="468" y="601"/>
      <point x="444" y="601" type="curve"/>
      <point x="371" y="601"/>
      <point x="382" y="661"/>
      <point x="212" y="661" type="curve" smooth="yes"/>
      <point x="68" y="661"/>
      <point x="0" y="502"/>
      <point x="0" y="317" type="curve" smooth="yes"/>
      <point x="0" y="132"/>
      <point x="62" y="-7"/>
      <point x="212" y="-7" type="curve" smooth="yes"/>
      <point x="413" y="-7"/>
      <point x="441" y="258"/>
      <point x="441" y="258" type="curve"/>
      <point x="461" y="258" type="line"/>
      <point x="461" y="172" type="line" smooth="yes"/>
      <point x="461" y="81"/>
      <point x="421" y="-22"/>
      <point x="345" y="-42" type="curve"/>
      <point x="345" y="-106" type="line"/>
    </contour>
    <contour>
      <point x="309" y="411" type="curve" smooth="yes"/>
      <point x="362" y="411"/>
      <point x="404" y="368"/>
      <point x="404" y="315" type="curve" smooth="yes"/>
      <point x="404" y="260"/>
      <point x="362" y="218"/>
      <point x="309" y="218" type="curve" smooth="yes"/>
      <point x="255" y="218"/>
      <point x="212" y="260"/>
      <point x="212" y="315" type="curve" smooth="yes"/>
      <point x="212" y="368"/>
      <point x="255" y="411"/>
    </contour>
  </outline>
</glyph>
<glyph name="sterling" format="2">
  <advance width="673"/>
  <unicode hex="00A3"/>
  <guideline x="105" y="366" angle="90" identifier="42gFw83yy1"/>
  <guideline x="198" y="347" angle="90" identifier="um92gvk5uE"/>
  <outline>
    <contour>
      <point x="452" y="452" type="line"/>
      <point x="612" y="452" type="line"/>
      <point x="612" y="749" type="line"/>
      <point x="542" y="771"/>
      <point x="477" y="753"/>
      <point x="452" y="699" type="curve"/>
    </contour>
    <contour>
      <point x="192" y="412" type="line"/>
      <point x="193" y="474"/>
      <point x="215" y="525"/>
      <point x="317" y="525" type="curve" smooth="yes"/>
      <point x="374" y="525"/>
      <point x="425" y="497"/>
      <point x="425" y="452" type="curve"/>
      <point x="540" y="452" type="line"/>
      <point x="540" y="579" type="line" smooth="yes"/>
      <point x="540" y="679"/>
      <point x="456" y="762"/>
      <point x="317" y="762" type="curve" smooth="yes"/>
      <point x="101" y="762"/>
      <point x="30" y="679"/>
      <point x="30" y="538" type="curve"/>
      <point x="30" y="494"/>
      <point x="45" y="452"/>
      <point x="66" y="412" type="curve"/>
    </contour>
    <contour>
      <point x="244" y="170" type="curve" smooth="yes"/>
      <point x="244" y="242"/>
      <point x="212" y="287"/>
      <point x="198" y="351" type="curve"/>
      <point x="102" y="351" type="line"/>
      <point x="148" y="282"/>
      <point x="198" y="221"/>
      <point x="198" y="171" type="curve" smooth="yes"/>
      <point x="198" y="118"/>
      <point x="170" y="63"/>
      <point x="122" y="63" type="curve" smooth="yes"/>
      <point x="97" y="63"/>
      <point x="67" y="86"/>
      <point x="67" y="120" type="curve" smooth="yes"/>
      <point x="67" y="148"/>
      <point x="93" y="176"/>
      <point x="127" y="176" type="curve" smooth="yes"/>
      <point x="204" y="176"/>
      <point x="230" y="23"/>
      <point x="360" y="-12" type="curve" smooth="yes"/>
      <point x="468" y="-41"/>
      <point x="569" y="5"/>
      <point x="612" y="36" type="curve"/>
      <point x="612" y="325" type="line"/>
      <point x="478" y="325" type="line"/>
      <point x="478" y="311" type="line" smooth="yes"/>
      <point x="478" y="266"/>
      <point x="449" y="216"/>
      <point x="350" y="216" type="curve" smooth="yes"/>
      <point x="278" y="216"/>
      <point x="192" y="252"/>
      <point x="147" y="252" type="curve" smooth="yes"/>
      <point x="68" y="252"/>
      <point x="1" y="204"/>
      <point x="1" y="126" type="curve" smooth="yes"/>
      <point x="1" y="57"/>
      <point x="51" y="-2"/>
      <point x="123" y="-2" type="curve" smooth="yes"/>
      <point x="190" y="-2"/>
      <point x="244" y="62"/>
    </contour>
    <component base="minus" xScale="0.7865098900493992" xOffset="13" yOffset="29"/>
    <component base="minus" xScale="0.7865098900493992" xOffset="13" yOffset="-35"/>
  </outline>
</glyph>
<glyph name="dieresis" format="2">
  <advance width="202"/>
  <unicode hex="00A8"/>
  <guideline x="157.0" y="0" angle="90.0" identifier="Ee08JwifJR"/>
  <outline>
    <contour>
      <point x="73" y="821" type="curve"/>
      <point x="73" y="835"/>
      <point x="69" y="847"/>
      <point x="47" y="847" type="curve"/>
      <point x="24" y="847"/>
      <point x="20" y="835"/>
      <point x="20" y="821" type="curve"/>
      <point x="20" y="806"/>
      <point x="24" y="793"/>
      <point x="47" y="793" type="curve"/>
      <point x="69" y="793"/>
      <point x="73" y="806"/>
    </contour>
    <contour>
      <point x="182" y="821" type="curve"/>
      <point x="182" y="835"/>
      <point x="178" y="847"/>
      <point x="156" y="847" type="curve"/>
      <point x="133" y="847"/>
      <point x="129" y="835"/>
      <point x="129" y="821" type="curve"/>
      <point x="129" y="806"/>
      <point x="133" y="793"/>
      <point x="156" y="793" type="curve"/>
      <point x="178" y="793"/>
      <point x="182" y="806"/>
    </contour>
  </outline>
</glyph>
<glyph name="registered" format="2">
  <advance width="876"/>
  <unicode hex="00AE"/>
  <outline>
    <contour>
      <point x="418.0" y="-46.0" type="curve" smooth="yes"/>
      <point x="137.0" y="-46.0"/>
      <point x="31.0" y="103.0"/>
      <point x="31.0" y="348.0" type="curve"/>
      <point x="31.0" y="593.0"/>
      <point x="137.0" y="742.0"/>
      <point x="418.0" y="742.0" type="curve" smooth="yes"/>
      <point x="699.0" y="742.0"/>
      <point x="805.0" y="593.0"/>
      <point x="805.0" y="348.0" type="curve"/>
      <point x="805.0" y="103.0"/>
      <point x="699.0" y="-46.0"/>
    </contour>
    <contour>
      <point x="418.0" y="-70.0" type="curve" smooth="yes"/>
      <point x="716.0" y="-70.0"/>
      <point x="836.0" y="83.0"/>
      <point x="836.0" y="348.0" type="curve"/>
      <point x="836.0" y="613.0"/>
      <point x="716.0" y="766.0"/>
      <point x="418.0" y="766.0" type="curve" smooth="yes"/>
      <point x="120.0" y="766.0"/>
      <point x="0.0" y="613.0"/>
      <point x="0.0" y="348.0" type="curve"/>
      <point x="0.0" y="83.0"/>
      <point x="120.0" y="-70.0"/>
    </contour>
    <component base="R" xScale="0.7515903121842797" yScale="0.7515903121842799" xOffset="177.11530494493832" yOffset="66.5294280869872"/>
  </outline>
</glyph>
<glyph name="paragraph" format="2">
  <advance width="713"/>
  <unicode hex="00B6"/>
  <outline>
    <contour>
      <point x="510" y="0" type="curve"/>
      <point x="542" y="0" type="line"/>
      <point x="540" y="110"/>
      <point x="540" y="247"/>
      <point x="540" y="395" type="curve" smooth="yes"/>
      <point x="540" y="482"/>
      <point x="614" y="502"/>
      <point x="673" y="502" type="curve"/>
      <point x="640" y="750" type="line"/>
      <point x="510" y="750" type="line"/>
      <point x="512" y="562"/>
      <point x="512" y="540"/>
      <point x="512" y="395" type="curve" smooth="yes"/>
      <point x="512" y="247"/>
      <point x="512" y="110"/>
    </contour>
    <contour>
      <point x="349" y="-1" type="line" smooth="yes"/>
      <point x="421" y="-1"/>
      <point x="472" y="50"/>
      <point x="472" y="122" type="curve" smooth="yes"/>
      <point x="472" y="750" type="line"/>
      <point x="189" y="750" type="line" smooth="yes"/>
      <point x="63" y="750"/>
      <point x="0" y="662"/>
      <point x="0" y="538" type="curve" smooth="yes"/>
      <point x="0" y="400"/>
      <point x="88" y="324"/>
      <point x="217" y="324" type="curve" smooth="yes"/>
      <point x="425" y="324" type="line"/>
      <point x="425" y="298" type="line"/>
      <point x="379" y="298" type="line"/>
      <point x="370" y="264"/>
      <point x="340" y="247"/>
      <point x="302" y="247" type="curve" smooth="yes"/>
      <point x="258" y="247" type="line"/>
      <point x="258" y="-1" type="line"/>
    </contour>
  </outline>
</glyph>
<glyph name="Oslash" format="2">
  <advance width="699"/>
  <unicode hex="00D8"/>
  <outline>
    <contour>
      <point x="-9" y="63" type="curve"/>
      <point x="13" y="40" type="line"/>
      <point x="95" y="124"/>
      <point x="245" y="275"/>
      <point x="359" y="390" type="curve" smooth="yes"/>
      <point x="474" y="503"/>
      <point x="552" y="582"/>
      <point x="700" y="727" type="curve"/>
      <point x="678" y="750" type="line"/>
      <point x="533" y="602"/>
      <point x="454" y="524"/>
      <point x="341" y="409" type="curve" smooth="yes"/>
      <point x="226" y="295"/>
      <point x="75" y="145"/>
    </contour>
    <component base="O"/>
  </outline>
</glyph>
<glyph name="ae" format="2">
  <advance width="981"/>
  <unicode hex="00E6"/>
  <outline>
    <contour>
      <point x="209" y="394" type="line"/>
      <point x="209" y="424"/>
      <point x="246" y="437"/>
      <point x="284" y="437" type="curve" smooth="yes"/>
      <point x="321" y="437"/>
      <point x="358" y="424"/>
      <point x="358" y="394" type="curve" smooth="yes"/>
      <point x="358" y="363"/>
      <point x="318" y="363"/>
      <point x="284" y="363" type="curve" smooth="yes"/>
      <point x="212" y="363" type="line" smooth="yes"/>
      <point x="22" y="363"/>
      <point x="0" y="236"/>
      <point x="0" y="173" type="curve" smooth="yes"/>
      <point x="0" y="117"/>
      <point x="51" y="-10"/>
      <point x="201" y="-10" type="curve" smooth="yes"/>
      <point x="322" y="-10"/>
      <point x="391" y="102"/>
      <point x="391" y="264" type="curve"/>
      <point x="411" y="264" type="line"/>
      <point x="411" y="264" type="line"/>
      <point x="430" y="50"/>
      <point x="560" y="-10"/>
      <point x="690" y="-10" type="curve"/>
      <point x="906" y="-10"/>
      <point x="941" y="118"/>
      <point x="941" y="118" type="curve"/>
      <point x="941" y="363" type="line"/>
      <point x="887" y="363" type="line"/>
      <point x="887" y="299"/>
      <point x="822" y="232"/>
      <point x="690" y="232" type="curve" smooth="yes"/>
      <point x="565" y="232"/>
      <point x="501" y="316"/>
      <point x="501" y="393" type="curve"/>
      <point x="940" y="393" type="line"/>
      <point x="940" y="393"/>
      <point x="955" y="648"/>
      <point x="690" y="648" type="curve" smooth="yes"/>
      <point x="617" y="648"/>
      <point x="543" y="628"/>
      <point x="489" y="572" type="curve"/>
      <point x="448" y="625"/>
      <point x="377" y="649"/>
      <point x="284" y="649" type="curve" smooth="yes"/>
      <point x="203" y="649"/>
      <point x="163" y="627"/>
      <point x="163" y="627" type="curve"/>
      <point x="163" y="627"/>
      <point x="131" y="647"/>
      <point x="76" y="647" type="curve" smooth="yes"/>
      <point x="34" y="647"/>
      <point x="15" y="639"/>
      <point x="15" y="639" type="curve"/>
      <point x="15" y="394" type="line"/>
    </contour>
    <contour>
      <point x="504" y="437" type="line"/>
      <point x="504" y="437"/>
      <point x="504" y="543"/>
      <point x="619" y="543" type="curve" smooth="yes"/>
      <point x="732" y="543"/>
      <point x="732" y="437"/>
      <point x="732" y="437" type="curve"/>
    </contour>
    <contour>
      <point x="201" y="290" type="curve" smooth="yes"/>
      <point x="201" y="323"/>
      <point x="230" y="339"/>
      <point x="284" y="339" type="curve" smooth="yes"/>
      <point x="368" y="339" type="line"/>
      <point x="368" y="320" type="line" smooth="yes"/>
      <point x="368" y="282"/>
      <point x="347" y="237"/>
      <point x="284" y="237" type="curve" smooth="yes"/>
      <point x="230" y="237"/>
      <point x="201" y="260"/>
    </contour>
  </outline>
</glyph>
<glyph name="eogonek" format="2">
  <advance width="572"/>
  <unicode hex="0119"/>
  <outline>
    <contour>
      <point x="274" y="-10" type="line"/>
      <point x="532" y="-10" type="line"/>
      <point x="532" y="162" type="line"/>
      <point x="274" y="162" type="line"/>
    </contour>
    <component base="e"/>
    <component base="ogonek" xOffset="349"/>
  </outline>
</glyph>
<glyph name="Hbar" format="2">
  <advance width="700"/>
  <unicode hex="0126"/>
  <outline>
    <contour>
      <point x="613" y="376" type="curve"/>
      <point x="613" y="408" type="line"/>
      <point x="547" y="406"/>
      <point x="427" y="406"/>
      <point x="336" y="406" type="curve" smooth="yes"/>
      <point x="247" y="406"/>
      <point x="207" y="406"/>
      <point x="91" y="408" type="curve"/>
      <point x="91" y="376" type="line"/>
      <point x="207" y="378"/>
      <point x="247" y="378"/>
      <point x="336" y="378" type="curve" smooth="yes"/>
      <point x="427" y="378"/>
      <point x="547" y="378"/>
    </contour>
    <contour>
      <point x="255" y="335" type="curve"/>
      <point x="255" y="750" type="line"/>
      <point x="35" y="750" type="line"/>
      <point x="2" y="502" type="line"/>
      <point x="65" y="502"/>
      <point x="162" y="486"/>
      <point x="162" y="388" type="curve" smooth="yes"/>
      <point x="162" y="361" type="line" smooth="yes"/>
      <point x="162" y="263"/>
      <point x="63" y="247"/>
      <point x="0" y="247" type="curve"/>
      <point x="0" y="-1" type="line"/>
      <point x="64" y="-1"/>
      <point x="247" y="29"/>
    </contour>
    <contour>
      <point x="336" y="0" type="line"/>
      <point x="660" y="0" type="line"/>
      <point x="660" y="247" type="line"/>
      <point x="597" y="247"/>
      <point x="538" y="263"/>
      <point x="538" y="361" type="curve" smooth="yes"/>
      <point x="538" y="388" type="line" smooth="yes"/>
      <point x="538" y="486"/>
      <point x="597" y="502"/>
      <point x="660" y="502" type="curve"/>
      <point x="660" y="750" type="line"/>
      <point x="382" y="750" type="line"/>
      <point x="382" y="300" type="line"/>
      <point x="382" y="275"/>
      <point x="365" y="249"/>
      <point x="336" y="249" type="curve"/>
    </contour>
    <contour>
      <point x="613" y="323" type="curve"/>
      <point x="613" y="355" type="line"/>
      <point x="547" y="353"/>
      <point x="427" y="353"/>
      <point x="336" y="353" type="curve" smooth="yes"/>
      <point x="247" y="353"/>
      <point x="207" y="353"/>
      <point x="91" y="355" type="curve"/>
      <point x="91" y="323" type="line"/>
      <point x="207" y="325"/>
      <point x="247" y="325"/>
      <point x="336" y="325" type="curve" smooth="yes"/>
      <point x="427" y="325"/>
      <point x="547" y="325"/>
    </contour>
  </outline>
</glyph>
<glyph name="dotlessi" format="2">
  <advance width="298"/>
  <unicode hex="0131"/>
  <outline>
    <contour>
      <point x="62" y="314" type="line"/>
      <point x="62" y="254"/>
      <point x="14" y="247"/>
      <point x="0" y="247" type="curve"/>
      <point x="0" y="-1" type="line"/>
      <point x="258" y="-1" type="line"/>
      <point x="258" y="247" type="line"/>
      <point x="241" y="247"/>
      <point x="202" y="250"/>
      <point x="202" y="314" type="curve"/>
      <point x="202" y="640" type="line"/>
      <point x="0" y="640" type="line"/>
      <point x="0" y="392" type="line"/>
      <point x="14" y="392"/>
      <point x="62" y="385"/>
      <point x="62" y="325" type="curve"/>
    </contour>
  </outline>
</glyph>
<glyph name="eng" format="2">
  <advance width="600"/>
  <unicode hex="014B"/>
  <outline>
    <contour>
      <point x="369" y="203" type="line" smooth="yes"/>
      <point x="369" y="143"/>
      <point x="331" y="136"/>
      <point x="299" y="136" type="curve"/>
      <point x="299" y="-112" type="line"/>
      <point x="387" y="-112" type="line" smooth="yes"/>
      <point x="489" y="-112"/>
      <point x="560" y="-41"/>
      <point x="560" y="61" type="curve" smooth="yes"/>
      <point x="560" y="427" type="line"/>
      <point x="559" y="558"/>
      <point x="519" y="651"/>
      <point x="369" y="651" type="curve" smooth="yes"/>
      <point x="168" y="651"/>
      <point x="179" y="386"/>
      <point x="179" y="386" type="curve"/>
      <point x="159" y="386" type="line"/>
      <point x="159" y="640" type="line"/>
      <point x="0" y="640" type="line"/>
      <point x="0" y="392" type="line"/>
      <point x="13" y="392"/>
      <point x="57" y="391"/>
      <point x="62" y="329" type="curve"/>
      <point x="62" y="314" type="line"/>
      <point x="62" y="254"/>
      <point x="14" y="247"/>
      <point x="0" y="247" type="curve"/>
      <point x="0" y="-1" type="line"/>
      <point x="258" y="-1" type="line"/>
      <point x="258" y="247" type="line"/>
      <point x="241" y="247"/>
      <point x="202" y="250"/>
      <point x="202" y="314" type="curve" smooth="yes"/>
      <point x="202" y="329" type="line"/>
      <point x="202" y="367"/>
      <point x="221" y="413"/>
      <point x="284" y="413" type="curve"/>
      <point x="338" y="413"/>
      <point x="369" y="384"/>
      <point x="369" y="329" type="curve"/>
    </contour>
  </outline>
</glyph>
<glyph name="OE" format="2">
  <advance width="950"/>
  <unicode hex="0152"/>
  <outline>
    <contour>
      <point x="782" y="325" type="line"/>
      <point x="782" y="311" type="line" smooth="yes"/>
      <point x="782" y="262"/>
      <point x="757" y="247"/>
      <point x="708" y="247" type="curve" smooth="yes"/>
      <point x="552" y="247" type="line"/>
      <point x="552" y="338" type="line"/>
      <point x="710" y="298" type="line"/>
      <point x="710" y="408" type="line"/>
      <point x="618" y="408" type="line" smooth="yes"/>
      <point x="527" y="408"/>
      <point x="528" y="551"/>
      <point x="619" y="551" type="curve" smooth="yes"/>
      <point x="663" y="551"/>
      <point x="695" y="524"/>
      <point x="703" y="461" type="curve"/>
      <point x="910" y="461" type="line"/>
      <point x="910" y="750" type="line"/>
      <point x="509" y="750" type="line"/>
      <point x="455" y="750" type="line"/>
      <point x="421" y="758"/>
      <point x="376" y="761"/>
      <point x="340" y="761" type="curve"/>
      <point x="154" y="761"/>
      <point x="0" y="677"/>
      <point x="0" y="375" type="curve"/>
      <point x="0" y="73"/>
      <point x="154" y="-11"/>
      <point x="340" y="-11" type="curve"/>
      <point x="375" y="-11"/>
      <point x="423" y="-8"/>
      <point x="455" y="-1" type="curve"/>
      <point x="474" y="180" type="line"/>
      <point x="492" y="180" type="line"/>
      <point x="510" y="-1" type="line"/>
      <point x="535" y="-1" type="line"/>
      <point x="537" y="28"/>
      <point x="553" y="43"/>
      <point x="577" y="44" type="curve"/>
      <point x="632" y="44"/>
      <point x="647" y="-12"/>
      <point x="754" y="-12" type="curve"/>
      <point x="812" y="-11"/>
      <point x="867" y="5"/>
      <point x="910" y="36" type="curve"/>
      <point x="910" y="325" type="line"/>
    </contour>
    <contour>
      <point x="95" y="375" type="curve"/>
      <point x="95" y="478"/>
      <point x="178" y="506"/>
      <point x="277" y="506" type="curve"/>
      <point x="376" y="506"/>
      <point x="458" y="478"/>
      <point x="458" y="375" type="curve"/>
      <point x="458" y="272"/>
      <point x="376" y="244"/>
      <point x="277" y="244" type="curve"/>
      <point x="178" y="244"/>
      <point x="95" y="272"/>
    </contour>
  </outline>
</glyph>
<glyph name="Tbar" format="2">
  <advance width="601"/>
  <unicode hex="0166"/>
  <outline>
    <contour>
      <point x="428" y="367" type="curve"/>
      <point x="428" y="399" type="line"/>
      <point x="393" y="397"/>
      <point x="330" y="397"/>
      <point x="282" y="397" type="curve" smooth="yes"/>
      <point x="235" y="397"/>
      <point x="214" y="397"/>
      <point x="153" y="399" type="curve"/>
      <point x="153" y="367" type="line"/>
      <point x="214" y="369"/>
      <point x="235" y="369"/>
      <point x="282" y="369" type="curve" smooth="yes"/>
      <point x="330" y="369"/>
      <point x="393" y="369"/>
    </contour>
    <component base="T"/>
  </outline>
</glyph>
<glyph name="dotaccent" format="2">
  <advance width="93"/>
  <unicode hex="02D9"/>
  <outline>
    <contour>
      <point x="73" y="821" type="curve"/>
      <point x="73" y="835"/>
      <point x="69" y="847"/>
      <point x="47" y="847" type="curve"/>
      <point x="24" y="847"/>
      <point x="20" y="835"/>
      <point x="20" y="821" type="curve"/>
      <point x="20" y="806"/>
      <point x="24" y="793"/>
      <point x="47" y="793" type="curve"/>
      <point x="69" y="793"/>
      <point x="73" y="806"/>
    </contour>
  </outline>
</glyph>
<glyph name="ring" format="2">
  <advance width="158"/>
  <unicode hex="02DA"/>
  <guideline x="157.0" y="0" angle="90.0" identifier="vxsSyX1kHw"/>
  <outline>
    <contour>
      <point x="138" y="833" type="curve"/>
      <point x="138" y="865"/>
      <point x="129" y="891"/>
      <point x="79" y="891" type="curve"/>
      <point x="30" y="891"/>
      <point x="20" y="865"/>
      <point x="20" y="833" type="curve"/>
      <point x="20" y="803"/>
      <point x="30" y="777"/>
      <point x="79" y="777" type="curve"/>
      <point x="129" y="777"/>
      <point x="138" y="803"/>
    </contour>
    <contour>
      <point x="125" y="833" type="curve"/>
      <point x="125" y="815"/>
      <point x="118" y="800"/>
      <point x="79" y="800" type="curve"/>
      <point x="41" y="800"/>
      <point x="33" y="815"/>
      <point x="33" y="833" type="curve"/>
      <point x="33" y="853"/>
      <point x="41" y="867"/>
      <point x="79" y="867" type="curve"/>
      <point x="118" y="867"/>
      <point x="125" y="853"/>
    </contour>
  </outline>
</glyph>
<glyph name="fraction" format="2">
  <advance width="712"/>
  <unicode hex="2044"/>
  <outline>
    <contour>
      <point x="343" y="368.0"/>
      <point x="513" y="534"/>
      <point x="653" y="666" type="curve"/>
      <point x="628" y="691" type="line"/>
      <point x="492" y="553"/>
      <point x="444.0" y="507.0"/>
      <point x="297" y="360.0" type="curve" smooth="yes"/>
      <point x="191" y="254.0"/>
      <point x="138" y="210"/>
      <point x="0" y="74" type="curve"/>
      <point x="25" y="49" type="line"/>
      <point x="161" y="187"/>
      <point x="328" y="352.0"/>
      <point x="335" y="360.0" type="curve"/>
    </contour>
  </outline>
</glyph>
<glyph name="approxequal" format="2">
  <advance width="452"/>
  <unicode hex="2248"/>
  <guideline x="104" y="349" angle="90" identifier="Be4OruTKn0"/>
  <guideline x="308" y="350" angle="90" identifier="a95LE2xeFq"/>
  <outline>
    <contour>
      <point x="412" y="296" type="curve"/>
      <point x="412" y="328" type="line"/>
      <point x="412" y="328"/>
      <point x="365" y="285"/>
      <point x="308" y="285" type="curve" smooth="yes"/>
      <point x="226" y="285"/>
      <point x="197" y="368"/>
      <point x="104" y="368" type="curve" smooth="yes"/>
      <point x="49" y="368"/>
      <point x="0" y="328"/>
      <point x="0" y="328" type="curve"/>
      <point x="0" y="296" type="line"/>
      <point x="0" y="296"/>
      <point x="53" y="339"/>
      <point x="104" y="339" type="curve" smooth="yes"/>
      <point x="187" y="339"/>
      <point x="216" y="256"/>
      <point x="309" y="256" type="curve" smooth="yes"/>
      <point x="366" y="256"/>
      <point x="412" y="296"/>
    </contour>
    <contour>
      <point x="412" y="426" type="curve"/>
      <point x="412" y="458" type="line"/>
      <point x="412" y="458"/>
      <point x="365" y="415"/>
      <point x="308" y="415" type="curve" smooth="yes"/>
      <point x="226" y="415"/>
      <point x="197" y="498"/>
      <point x="104" y="498" type="curve" smooth="yes"/>
      <point x="49" y="498"/>
      <point x="0" y="458"/>
      <point x="0" y="458" type="curve"/>
      <point x="0" y="426" type="line"/>
      <point x="0" y="426"/>
      <point x="53" y="469"/>
      <point x="104" y="469" type="curve" smooth="yes"/>
      <point x="187" y="469"/>
      <point x="216" y="386"/>
      <point x="309" y="386" type="curve" smooth="yes"/>
      <point x="366" y="386"/>
      <point x="412" y="426"/>
    </contour>
  </outline>
</glyph>
<glyph name="sym_halfcaron" format="2">
  <advance width="141"/>
  <outline>
    <contour>
      <point x="85" y="750" type="curve"/>
      <point x="121" y="750" type="line"/>
      <point x="121" y="648"/>
      <point x="69" y="540"/>
      <point x="32" y="503" type="curve"/>
      <point x="20" y="511" type="line"/>
      <point x="64" y="570"/>
      <point x="85" y="645"/>
    </contour>
  </outline>
</glyph>
<glyph name="sym_hslash" format="2">
  <advance width="313"/>
  <outline>
    <contour>
      <point x="20" y="358" type="line"/>
      <point x="54" y="366"/>
      <point x="115" y="383"/>
      <point x="161" y="397" type="curve" smooth="yes"/>
      <point x="206" y="410"/>
      <point x="226" y="416"/>
      <point x="284" y="435" type="curve"/>
      <point x="293" y="404" type="line"/>
      <point x="234" y="389"/>
      <point x="214" y="383"/>
      <point x="169" y="370" type="curve" smooth="yes"/>
      <point x="122" y="357"/>
      <point x="62" y="339"/>
      <point x="29" y="327" type="curve"/>
    </contour>
  </outline>
</glyph>
